<svg width="39" height="27" viewBox="0 0 39 27" fill="none" xmlns="http://www.w3.org/2000/svg">
<path d="M36.0088 2.535L33.9388 3.705V3.465L36.0088 4.635L35.6638 5.265L33.6238 4.08L33.7888 4.005V6.3H33.0988L33.1138 4.005L33.2638 4.08L31.2388 5.265L30.8788 4.635L32.9638 3.465V3.705L30.8788 2.535L31.2388 1.905L33.2638 3.09L33.1138 3.165L33.0988 0.869999H33.7888V3.165L33.6238 3.09L35.6638 1.905L36.0088 2.535Z" fill="black"/>
<path d="M13.9316 7.41177C12.7275 7.41177 11.5504 7.76883 10.5492 8.43782C9.54799 9.1068 8.76765 10.0577 8.30685 11.1701C7.84604 12.2826 7.72547 13.5068 7.96039 14.6878C8.19531 15.8688 8.77515 16.9536 9.62661 17.805C10.4781 18.6565 11.5629 19.2363 12.7439 19.4713C13.9249 19.7062 15.149 19.5856 16.2615 19.1248C17.374 18.664 18.3248 17.8836 18.9938 16.8824C19.6628 15.8812 20.0199 14.7041 20.0199 13.5C20.0178 11.8859 19.3757 10.3386 18.2344 9.19729C17.093 8.05598 15.5457 7.41387 13.9316 7.41177ZM13.9316 18C13.0416 18 12.1716 17.7361 11.4316 17.2416C10.6916 16.7471 10.1148 16.0443 9.77418 15.2221C9.43359 14.3998 9.34447 13.495 9.51811 12.6221C9.69174 11.7492 10.1203 10.9474 10.7497 10.318C11.379 9.68868 12.1808 9.2601 13.0537 9.08647C13.9266 8.91283 14.8314 9.00195 15.6537 9.34254C16.476 9.68314 17.1788 10.2599 17.6733 10.9999C18.1677 11.74 18.4316 12.61 18.4316 13.5C18.4316 14.6935 17.9575 15.8381 17.1136 16.682C16.2697 17.5259 15.1251 18 13.9316 18ZM20.2846 0H7.5787C5.68383 0.00210191 3.86717 0.755769 2.52729 2.09565C1.18741 3.43552 0.433743 5.25219 0.431641 7.14706V19.8529C0.433743 21.7478 1.18741 23.5645 2.52729 24.9044C3.86717 26.2442 5.68383 26.9979 7.5787 27H20.2846C22.1795 26.9979 23.9961 26.2442 25.336 24.9044C26.6759 23.5645 27.4295 21.7478 27.4316 19.8529V7.14706C27.4295 5.25219 26.6759 3.43552 25.336 2.09565C23.9961 0.755769 22.1795 0.00210191 20.2846 0ZM25.8434 19.8529C25.8434 21.3272 25.2577 22.7411 24.2153 23.7836C23.1728 24.8261 21.7589 25.4118 20.2846 25.4118H7.5787C6.10441 25.4118 4.6905 24.8261 3.64802 23.7836C2.60554 22.7411 2.01988 21.3272 2.01988 19.8529V7.14706C2.01988 5.67277 2.60554 4.25886 3.64802 3.21638C4.6905 2.1739 6.10441 1.58824 7.5787 1.58824H20.2846C21.7589 1.58824 23.1728 2.1739 24.2153 3.21638C25.2577 4.25886 25.8434 5.67277 25.8434 7.14706V19.8529ZM22.1375 6.61765C22.1375 6.87942 22.0599 7.13531 21.9145 7.35296C21.769 7.57061 21.5623 7.74025 21.3205 7.84043C21.0786 7.9406 20.8125 7.96681 20.5558 7.91575C20.299 7.86468 20.0632 7.73862 19.8781 7.55352C19.693 7.36843 19.567 7.1326 19.5159 6.87586C19.4648 6.61912 19.491 6.353 19.5912 6.11115C19.6914 5.86931 19.861 5.6626 20.0787 5.51717C20.2963 5.37174 20.5522 5.29412 20.814 5.29412C21.165 5.29412 21.5017 5.43356 21.7499 5.68177C21.9981 5.92998 22.1375 6.26663 22.1375 6.61765Z" fill="black"/>
</svg>
