<svg width="22" height="24" viewBox="0 0 22 24" fill="none" xmlns="http://www.w3.org/2000/svg">
<mask id="path-1-outside-1_1_655" maskUnits="userSpaceOnUse" x="0" y="0" width="22" height="24" fill="black">
<rect fill="white" width="22" height="24"/>
<path d="M20.9375 10.9961V12.4805H1.44531V10.9961H20.9375ZM11.8359 1.44531V22.1484H10.2539V1.44531H11.8359Z"/>
</mask>
<path d="M20.9375 10.9961V12.4805H1.44531V10.9961H20.9375ZM11.8359 1.44531V22.1484H10.2539V1.44531H11.8359Z" fill="white"/>
<path d="M20.9375 10.9961H21.9375V9.99609H20.9375V10.9961ZM20.9375 12.4805V13.4805H21.9375V12.4805H20.9375ZM1.44531 12.4805H0.445312V13.4805H1.44531V12.4805ZM1.44531 10.9961V9.99609H0.445312V10.9961H1.44531ZM11.8359 1.44531H12.8359V0.445312H11.8359V1.44531ZM11.8359 22.1484V23.1484H12.8359V22.1484H11.8359ZM10.2539 22.1484H9.25391V23.1484H10.2539V22.1484ZM10.2539 1.44531V0.445312H9.25391V1.44531H10.2539ZM20.9375 10.9961H19.9375V12.4805H20.9375H21.9375V10.9961H20.9375ZM20.9375 12.4805V11.4805H1.44531V12.4805V13.4805H20.9375V12.4805ZM1.44531 12.4805H2.44531V10.9961H1.44531H0.445312V12.4805H1.44531ZM1.44531 10.9961V11.9961H20.9375V10.9961V9.99609H1.44531V10.9961ZM11.8359 1.44531H10.8359V22.1484H11.8359H12.8359V1.44531H11.8359ZM11.8359 22.1484V21.1484H10.2539V22.1484V23.1484H11.8359V22.1484ZM10.2539 22.1484H11.2539V1.44531H10.2539H9.25391V22.1484H10.2539ZM10.2539 1.44531V2.44531H11.8359V1.44531V0.445312H10.2539V1.44531Z" fill="black" mask="url(#path-1-outside-1_1_655)"/>
</svg>
