<svg width="10" height="13" viewBox="0 0 10 13" fill="none" xmlns="http://www.w3.org/2000/svg">
<path d="M6.25 8.125C7.24456 8.125 8.19839 7.69699 8.90165 6.93512C9.60491 6.17325 10 5.13994 10 4.0625C10 2.98506 9.60491 1.95175 8.90165 1.18988C8.19839 0.428012 7.24456 0 6.25 0H2.5C2.36739 0 2.24021 0.0570684 2.14645 0.158651C2.05268 0.260233 2 0.398008 2 0.541667V7.04167H0.5C0.367392 7.04167 0.240215 7.09873 0.146447 7.20032C0.0526785 7.3019 0 7.43967 0 7.58333C0 7.72699 0.0526785 7.86477 0.146447 7.96635C0.240215 8.06793 0.367392 8.125 0.5 8.125H2V9.20833H0.5C0.367392 9.20833 0.240215 9.2654 0.146447 9.36698C0.0526785 9.46857 0 9.60634 0 9.75C0 9.89366 0.0526785 10.0314 0.146447 10.133C0.240215 10.2346 0.367392 10.2917 0.5 10.2917H2V12.4583C2 12.602 2.05268 12.7398 2.14645 12.8414C2.24021 12.9429 2.36739 13 2.5 13C2.63261 13 2.75979 12.9429 2.85355 12.8414C2.94732 12.7398 3 12.602 3 12.4583V10.2917H6C6.13261 10.2917 6.25979 10.2346 6.35355 10.133C6.44732 10.0314 6.5 9.89366 6.5 9.75C6.5 9.60634 6.44732 9.46857 6.35355 9.36698C6.25979 9.2654 6.13261 9.20833 6 9.20833H3V8.125H6.25ZM3 1.08333H6.25C6.97935 1.08333 7.67882 1.39721 8.19454 1.95591C8.71027 2.51461 9 3.27238 9 4.0625C9 4.85262 8.71027 5.61039 8.19454 6.16909C7.67882 6.72779 6.97935 7.04167 6.25 7.04167H3V1.08333Z" fill="black"/>
</svg>
