<svg width="14" height="14" viewBox="0 0 14 14" fill="none" xmlns="http://www.w3.org/2000/svg">
<mask id="path-1-inside-1_36_2910" fill="white">
<path d="M12.8947 14C13.1879 14 13.469 13.8836 13.6763 13.6763C13.8836 13.469 14 13.1879 14 12.8947V10.3158C14 10.0227 13.8836 9.74153 13.6763 9.53425C13.469 9.32697 13.1879 9.21053 12.8947 9.21053C12.0326 9.21053 11.1853 9.0779 10.3747 8.80526C10.181 8.7441 9.97412 8.73717 9.77668 8.78523C9.57924 8.83329 9.39873 8.93451 9.25474 9.0779L8.19368 10.1389C6.3606 9.13862 4.85401 7.63203 3.85368 5.79895L4.90737 4.74526C5.20947 4.45789 5.32 4.03053 5.18737 3.61789C4.92211 2.81474 4.78947 1.96737 4.78947 1.10526C4.78947 0.812129 4.67303 0.531001 4.46575 0.323724C4.25847 0.116447 3.97734 0 3.68421 0H1.10526C0.812129 0 0.531001 0.116447 0.323724 0.323724C0.116447 0.531001 0 0.812129 0 1.10526C0 8.21579 5.78421 14 12.8947 14ZM1.10526 0.736842H3.68421C3.78192 0.736842 3.87563 0.775658 3.94472 0.84475C4.01382 0.913843 4.05263 1.00755 4.05263 1.10526C4.05263 2.04842 4.2 2.96947 4.48737 3.84632C4.52421 3.94947 4.51684 4.09684 4.39895 4.21474L2.94737 5.65895C4.16316 8.03895 5.94632 9.82211 8.33368 11.0526L9.77053 9.60105C9.87368 9.4979 10.0137 9.46842 10.1463 9.50526C11.0305 9.8 11.9516 9.94737 12.8947 9.94737C12.9924 9.94737 13.0862 9.98618 13.1553 10.0553C13.2243 10.1244 13.2632 10.2181 13.2632 10.3158V12.8947C13.2632 12.9924 13.2243 13.0862 13.1553 13.1553C13.0862 13.2243 12.9924 13.2632 12.8947 13.2632C6.18947 13.2632 0.736842 7.81053 0.736842 1.10526C0.736842 1.00755 0.775658 0.913843 0.84475 0.84475C0.913843 0.775658 1.00755 0.736842 1.10526 0.736842Z"/>
</mask>
<path d="M12.8947 14C13.1879 14 13.469 13.8836 13.6763 13.6763C13.8836 13.469 14 13.1879 14 12.8947V10.3158C14 10.0227 13.8836 9.74153 13.6763 9.53425C13.469 9.32697 13.1879 9.21053 12.8947 9.21053C12.0326 9.21053 11.1853 9.0779 10.3747 8.80526C10.181 8.7441 9.97412 8.73717 9.77668 8.78523C9.57924 8.83329 9.39873 8.93451 9.25474 9.0779L8.19368 10.1389C6.3606 9.13862 4.85401 7.63203 3.85368 5.79895L4.90737 4.74526C5.20947 4.45789 5.32 4.03053 5.18737 3.61789C4.92211 2.81474 4.78947 1.96737 4.78947 1.10526C4.78947 0.812129 4.67303 0.531001 4.46575 0.323724C4.25847 0.116447 3.97734 0 3.68421 0H1.10526C0.812129 0 0.531001 0.116447 0.323724 0.323724C0.116447 0.531001 0 0.812129 0 1.10526C0 8.21579 5.78421 14 12.8947 14ZM1.10526 0.736842H3.68421C3.78192 0.736842 3.87563 0.775658 3.94472 0.84475C4.01382 0.913843 4.05263 1.00755 4.05263 1.10526C4.05263 2.04842 4.2 2.96947 4.48737 3.84632C4.52421 3.94947 4.51684 4.09684 4.39895 4.21474L2.94737 5.65895C4.16316 8.03895 5.94632 9.82211 8.33368 11.0526L9.77053 9.60105C9.87368 9.4979 10.0137 9.46842 10.1463 9.50526C11.0305 9.8 11.9516 9.94737 12.8947 9.94737C12.9924 9.94737 13.0862 9.98618 13.1553 10.0553C13.2243 10.1244 13.2632 10.2181 13.2632 10.3158V12.8947C13.2632 12.9924 13.2243 13.0862 13.1553 13.1553C13.0862 13.2243 12.9924 13.2632 12.8947 13.2632C6.18947 13.2632 0.736842 7.81053 0.736842 1.10526C0.736842 1.00755 0.775658 0.913843 0.84475 0.84475C0.913843 0.775658 1.00755 0.736842 1.10526 0.736842Z" fill="black"/>
<path d="M12.8947 9.21053V8.21053V9.21053ZM10.3747 8.80526L10.6935 7.85745L10.6847 7.85446L10.6757 7.85164L10.3747 8.80526ZM9.25474 9.0779L8.54912 8.3693L8.54763 8.37079L9.25474 9.0779ZM8.19368 10.1389L7.71466 11.0168L8.3716 11.3752L8.90079 10.8461L8.19368 10.1389ZM3.85368 5.79895L3.14658 5.09184L2.61739 5.62103L2.97588 6.27797L3.85368 5.79895ZM4.90737 4.74526L4.21815 4.02071L4.2091 4.02932L4.20026 4.03816L4.90737 4.74526ZM5.18737 3.61789L6.13943 3.31188L6.13692 3.30428L5.18737 3.61789ZM4.78947 1.10526L5.78947 1.10526L4.78947 1.10526ZM3.68421 0V-1V0ZM0 1.10526H-1H0ZM1.10526 0.736842V1.73684V0.736842ZM3.68421 0.736842L3.68421 1.73684L3.68421 0.736842ZM4.48737 3.84632L3.5371 4.15775L3.5412 4.17026L3.54563 4.18265L4.48737 3.84632ZM4.39895 4.21474L5.10425 4.92364L5.10605 4.92184L4.39895 4.21474ZM2.94737 5.65895L2.24206 4.95004L1.72507 5.46441L2.05683 6.11386L2.94737 5.65895ZM8.33368 11.0526L7.87553 11.9415L8.528 12.2778L9.04439 11.7561L8.33368 11.0526ZM9.77053 9.60105L9.06341 8.89394L9.05982 8.89756L9.77053 9.60105ZM10.1463 9.50526L10.4625 8.55658L10.4384 8.54855L10.414 8.54175L10.1463 9.50526ZM12.8947 14V15C13.4531 15 13.9886 14.7782 14.3834 14.3834L13.6763 13.6763L12.9692 12.9692C12.9494 12.9889 12.9227 13 12.8947 13V14ZM13.6763 13.6763L14.3834 14.3834C14.7782 13.9886 15 13.4531 15 12.8947H14H13C13 12.9227 12.9889 12.9494 12.9692 12.9692L13.6763 13.6763ZM14 12.8947H15V10.3158H14H13V12.8947H14ZM14 10.3158H15C15 9.75744 14.7782 9.22196 14.3834 8.82714L13.6763 9.53425L12.9692 10.2414C12.9889 10.2611 13 10.2879 13 10.3158H14ZM13.6763 9.53425L14.3834 8.82714C13.9886 8.43233 13.4531 8.21053 12.8947 8.21053L12.8947 9.21053L12.8947 10.2105C12.9227 10.2105 12.9494 10.2216 12.9692 10.2414L13.6763 9.53425ZM12.8947 9.21053V8.21053C12.1358 8.21053 11.3965 8.09388 10.6935 7.85745L10.3747 8.80526L10.0559 9.75308C10.974 10.0619 11.9295 10.2105 12.8947 10.2105V9.21053ZM10.3747 8.80526L10.6757 7.85164C10.3078 7.7355 9.91506 7.72235 9.54016 7.8136L9.77668 8.78523L10.0132 9.75686C10.0332 9.75199 10.0541 9.7527 10.0737 9.75889L10.3747 8.80526ZM9.77668 8.78523L9.54016 7.8136C9.16527 7.90486 8.82252 8.09704 8.54912 8.3693L9.25474 9.0779L9.96036 9.78649C9.97493 9.77197 9.9932 9.76173 10.0132 9.75686L9.77668 8.78523ZM9.25474 9.0779L8.54763 8.37079L7.48658 9.43184L8.19368 10.1389L8.90079 10.8461L9.96184 9.785L9.25474 9.0779ZM8.19368 10.1389L8.67271 9.26115C7.00805 8.35274 5.6399 6.98458 4.73149 5.31993L3.85368 5.79895L2.97588 6.27797C4.06812 8.27949 5.71314 9.92451 7.71466 11.0168L8.19368 10.1389ZM3.85368 5.79895L4.56079 6.50605L5.61448 5.45237L4.90737 4.74526L4.20026 4.03816L3.14658 5.09184L3.85368 5.79895ZM4.90737 4.74526L5.59658 5.46982C6.18095 4.91396 6.38777 4.08459 6.1394 3.31189L5.18737 3.61789L4.23534 3.9239C4.24545 3.95536 4.24302 3.97498 4.24052 3.98494C4.23798 3.99508 4.23242 4.00714 4.21815 4.02071L4.90737 4.74526ZM5.18737 3.61789L6.13692 3.30428C5.90629 2.60599 5.78947 1.86476 5.78947 1.10526H4.78947H3.78947C3.78947 2.06998 3.93792 3.02349 4.23782 3.93151L5.18737 3.61789ZM4.78947 1.10526L5.78947 1.10526C5.78947 0.546912 5.56767 0.0114305 5.17286 -0.383383L4.46575 0.323724L3.75864 1.03083C3.77838 1.05057 3.78947 1.07735 3.78947 1.10526L4.78947 1.10526ZM4.46575 0.323724L5.17286 -0.383383C4.77804 -0.778196 4.24256 -1 3.68421 -1L3.68421 0L3.68421 1C3.71213 1 3.7389 1.01109 3.75864 1.03083L4.46575 0.323724ZM3.68421 0V-1H1.10526V0V1H3.68421V0ZM1.10526 0V-1C0.546913 -1 0.0114307 -0.778196 -0.383383 -0.383383L0.323724 0.323724L1.03083 1.03083C1.05057 1.01109 1.07735 1 1.10526 1V0ZM0.323724 0.323724L-0.383383 -0.383383C-0.778196 0.0114307 -1 0.546913 -1 1.10526L0 1.10526L1 1.10526C1 1.07735 1.01109 1.05057 1.03083 1.03083L0.323724 0.323724ZM0 1.10526H-1C-1 8.76807 5.23193 15 12.8947 15V14V13C6.3365 13 1 7.6635 1 1.10526H0ZM1.10526 0.736842V1.73684H3.68421V0.736842V-0.263158H1.10526V0.736842ZM3.68421 0.736842L3.68421 1.73684C3.51671 1.73684 3.35606 1.6703 3.23762 1.55186L3.94472 0.84475L4.65183 0.137643C4.3952 -0.118986 4.04714 -0.263158 3.68421 -0.263158L3.68421 0.736842ZM3.94472 0.84475L3.23762 1.55186C3.11917 1.43341 3.05263 1.27277 3.05263 1.10526H4.05263H5.05263C5.05263 0.742334 4.90846 0.394271 4.65183 0.137643L3.94472 0.84475ZM4.05263 1.10526H3.05263C3.05263 2.15324 3.21649 3.17946 3.5371 4.15775L4.48737 3.84632L5.43764 3.53488C5.18351 2.75948 5.05263 1.9436 5.05263 1.10526H4.05263ZM4.48737 3.84632L3.54563 4.18265C3.47301 3.97934 3.49582 3.70365 3.69184 3.50763L4.39895 4.21474L5.10605 4.92184C5.53787 4.49003 5.57541 3.91961 5.42911 3.50998L4.48737 3.84632ZM4.39895 4.21474L3.69364 3.50583L2.24206 4.95004L2.94737 5.65895L3.65267 6.36785L5.10425 4.92364L4.39895 4.21474ZM2.94737 5.65895L2.05683 6.11386C3.36863 8.68181 5.30382 10.616 7.87553 11.9415L8.33368 11.0526L8.79184 10.1638C6.58882 9.02825 4.95768 7.39608 3.8379 5.20403L2.94737 5.65895ZM8.33368 11.0526L9.04439 11.7561L10.4812 10.3045L9.77053 9.60105L9.05982 8.89756L7.62298 10.3491L8.33368 11.0526ZM9.77053 9.60105L10.4776 10.3082C10.3055 10.4803 10.0647 10.5205 9.87867 10.4688L10.1463 9.50526L10.414 8.54175C9.96263 8.41638 9.44189 8.51547 9.06342 8.89395L9.77053 9.60105ZM10.1463 9.50526L9.83009 10.4539C10.8183 10.7833 11.8463 10.9474 12.8947 10.9474V9.94737V8.94737C12.0569 8.94737 11.2428 8.81665 10.4625 8.55658L10.1463 9.50526ZM12.8947 9.94737V10.9474C12.7272 10.9474 12.5666 10.8808 12.4481 10.7624L13.1553 10.0553L13.8624 9.34817C13.6057 9.09154 13.2577 8.94737 12.8947 8.94737V9.94737ZM13.1553 10.0553L12.4481 10.7624C12.3297 10.6439 12.2632 10.4833 12.2632 10.3158H13.2632H14.2632C14.2632 9.95287 14.119 9.6048 13.8624 9.34817L13.1553 10.0553ZM13.2632 10.3158H12.2632V12.8947H13.2632H14.2632V10.3158H13.2632ZM13.2632 12.8947H12.2632C12.2632 12.7272 12.3297 12.5666 12.4481 12.4481L13.1553 13.1553L13.8624 13.8624C14.119 13.6057 14.2632 13.2577 14.2632 12.8947H13.2632ZM13.1553 13.1553L12.4481 12.4481C12.5666 12.3297 12.7272 12.2632 12.8947 12.2632V13.2632V14.2632C13.2577 14.2632 13.6057 14.119 13.8624 13.8624L13.1553 13.1553ZM12.8947 13.2632V12.2632C6.74176 12.2632 1.73684 7.25824 1.73684 1.10526H0.736842H-0.263158C-0.263158 8.36281 5.63719 14.2632 12.8947 14.2632V13.2632ZM0.736842 1.10526H1.73684C1.73684 1.27277 1.6703 1.43341 1.55186 1.55186L0.84475 0.84475L0.137643 0.137643C-0.118986 0.394272 -0.263158 0.742336 -0.263158 1.10526H0.736842ZM0.84475 0.84475L1.55186 1.55186C1.43341 1.6703 1.27277 1.73684 1.10526 1.73684L1.10526 0.736842L1.10526 -0.263158C0.742336 -0.263158 0.394272 -0.118986 0.137643 0.137643L0.84475 0.84475Z" fill="white" mask="url(#path-1-inside-1_36_2910)"/>
</svg>
