<svg width="26" height="24" viewBox="0 0 26 24" fill="none" xmlns="http://www.w3.org/2000/svg">
<path d="M25.3128 0.449287C25.0459 0.224364 24.7241 0.0770672 24.3814 0.0230569C24.0387 -0.0309534 23.688 0.0103417 23.3665 0.142552L1.18422 9.23523C0.825763 9.3848 0.520587 9.64153 0.309202 9.97135C0.0978165 10.3012 -0.00977895 10.6885 0.000698565 11.0818C0.0111761 11.4752 0.139231 11.856 0.367864 12.1737C0.596497 12.4915 0.914893 12.7311 1.28079 12.8607L6.06713 14.5478L8.66086 23.2545C8.66582 23.2721 8.68191 23.2834 8.68934 23.2998C8.7164 23.3691 8.75539 23.4329 8.80448 23.4884C8.87994 23.573 8.97667 23.6351 9.08428 23.6681C9.09666 23.6732 9.10533 23.6845 9.11771 23.687H9.12514L9.12885 23.6882C9.22464 23.709 9.32414 23.7038 9.41732 23.6731L9.44827 23.6669C9.53761 23.6348 9.61852 23.5823 9.68474 23.5135C9.69217 23.5047 9.70455 23.5034 9.71198 23.4959L13.4423 19.3147L18.886 23.5952C19.2166 23.8579 19.6239 24 20.0436 24C20.9523 24 21.736 23.3538 21.923 22.4525L25.9615 2.3161C26.0304 1.97425 26.0065 1.61982 25.8922 1.29075C25.7779 0.961674 25.5776 0.670369 25.3128 0.44803M10.0141 16.2009L9.13875 20.5216L7.31262 14.3894L16.369 9.5998L10.1824 15.8828C10.0969 15.9698 10.0383 16.0804 10.0141 16.2009ZM20.7097 22.1998C20.6864 22.3138 20.6347 22.4198 20.5595 22.5077C20.4842 22.5955 20.388 22.6622 20.2801 22.7014C20.1746 22.7419 20.0607 22.7542 19.9492 22.737C19.8378 22.7199 19.7325 22.6738 19.6437 22.6033L13.7468 17.9659C13.6235 17.8692 13.4689 17.8233 13.3138 17.8373C13.1587 17.8513 13.0145 17.9241 12.9099 18.0413L10.3137 20.9465L11.1877 16.6384L20.0882 7.59973C20.1924 7.49355 20.2558 7.35303 20.267 7.20354C20.2781 7.05405 20.2363 6.90543 20.149 6.7845C20.0618 6.66357 19.9348 6.57829 19.7911 6.54406C19.6473 6.50983 19.4963 6.52889 19.3651 6.59782L6.53511 13.3837L1.68563 11.6715C1.55744 11.6278 1.4457 11.5448 1.3657 11.4341C1.2857 11.3234 1.24134 11.1903 1.23869 11.053C1.23215 10.9142 1.2685 10.7769 1.34264 10.6601C1.41679 10.5434 1.52502 10.4531 1.6522 10.4018L23.8308 1.30915C23.9446 1.2607 24.0693 1.24515 24.1913 1.26423C24.3132 1.28331 24.4275 1.33628 24.5217 1.41726C24.6153 1.49365 24.686 1.59512 24.7259 1.7102C24.7657 1.82527 24.773 1.94937 24.747 2.06845L20.7097 22.1998Z" fill="black"/>
</svg>
