<svg width="17" height="17" viewBox="0 0 17 17" fill="none" xmlns="http://www.w3.org/2000/svg">
<path fill-rule="evenodd" clip-rule="evenodd" d="M5.89985 5.0331C5.09617 5.83679 4.90298 6.74326 5.0869 7.64818C5.27545 8.57475 5.86739 9.51676 6.66643 10.3135C7.48014 11.1249 8.41518 11.723 9.33554 11.9132C10.2304 12.0978 11.1361 11.9039 11.9668 11.0778C11.9683 11.0747 12.0047 11.0105 11.939 10.815C11.8694 10.6072 11.7102 10.3467 11.4622 10.1002C11.2149 9.85292 10.9529 9.69373 10.7451 9.62418C10.5441 9.55772 10.48 9.59636 10.4785 9.59636C10.1153 9.95957 9.91202 10.2841 9.88343 10.5716C9.87724 10.6319 9.85695 10.6899 9.8242 10.7409C9.79144 10.7919 9.74714 10.8345 9.69488 10.8653C9.44682 11.0121 9.10294 11.0693 8.66865 10.924C8.25059 10.7833 7.74984 10.4565 7.13858 9.84674C6.52656 9.23624 6.19813 8.7378 6.05672 8.3205C5.91066 7.88697 5.96862 7.54309 6.11545 7.29502C6.14626 7.2429 6.18889 7.19875 6.23989 7.16614C6.2909 7.13352 6.34886 7.11334 6.4091 7.10724C6.69811 7.07864 7.02576 6.8754 7.38896 6.51452C7.38896 6.51065 7.42605 6.44728 7.36037 6.25177C7.29082 6.04389 7.13163 5.78347 6.88357 5.53695C6.63629 5.28966 6.37432 5.13047 6.16645 5.06092C5.96553 4.99446 5.90139 5.0331 5.89985 5.0331ZM6.40987 4.32755C6.75452 4.44192 7.1154 4.6753 7.42991 4.98905C7.74365 5.3028 7.97857 5.66214 8.09372 6.00603C8.20036 6.32519 8.23822 6.75871 7.93839 7.05701C7.60379 7.39162 7.20195 7.7046 6.74525 7.82824C6.74508 7.91188 6.76 7.99487 6.78929 8.07321C6.87662 8.33132 7.11385 8.73085 7.68415 9.29884C8.25368 9.86761 8.65474 10.1041 8.91439 10.1914C9.0218 10.2269 9.10217 10.2378 9.16245 10.2354C9.28686 9.77951 9.60137 9.37921 9.93598 9.04537C10.2358 8.74708 10.6686 8.78494 10.9885 8.89081C11.3324 9.00518 11.6932 9.23934 12.0078 9.55308C12.3223 9.86683 12.5564 10.2254 12.6723 10.5693C12.7782 10.8884 12.8168 11.322 12.5162 11.621C11.4954 12.6388 10.3224 12.9062 9.17945 12.6697C8.05971 12.4386 6.99639 11.7339 6.12086 10.8614C5.25304 9.99589 4.55833 8.92404 4.32959 7.80197C4.09699 6.65825 4.3551 5.48131 5.35737 4.48211C5.6572 4.18381 6.09072 4.22168 6.40987 4.32755Z" fill="white"/>
<path fill-rule="evenodd" clip-rule="evenodd" d="M8.58475 0.939266C7.21667 0.939085 5.87487 1.30988 4.70605 2.01111C3.53724 2.71234 2.5864 3.71702 1.9575 4.91529C1.3286 6.11356 1.04585 7.4593 1.14016 8.80538C1.23447 10.1515 1.70221 11.446 2.49225 12.5476C2.53951 12.6135 2.56881 12.6902 2.57733 12.7704C2.58585 12.8507 2.5733 12.9317 2.5409 13.0058L1.3161 15.7999L4.80448 14.8017C4.92217 14.7679 5.04856 14.78 5.15742 14.8356C6.16105 15.3471 7.26934 15.6272 8.3987 15.6547C9.52807 15.6822 10.649 15.4564 11.677 14.9943C12.705 14.5323 13.6132 13.846 14.3331 12.9874C15.053 12.1287 15.5657 11.12 15.8328 10.0374C16.0998 8.95476 16.114 7.82648 15.8745 6.73763C15.6349 5.64878 15.1478 4.6278 14.4498 3.75169C13.7519 2.87558 12.8613 2.16722 11.8453 1.68003C10.8294 1.19284 9.71446 0.939555 8.58475 0.939266ZM0.16952 8.29809C0.169855 6.49566 0.765112 4.74233 1.86532 3.30312C2.96552 1.86391 4.51087 0.817056 6.26777 0.32079C8.02467 -0.175477 9.89762 -0.0941777 11.6035 0.552399C13.3094 1.19898 14.7555 2.37568 15.7233 3.90466C16.691 5.43363 17.1278 7.23176 16.9676 9.02724C16.8074 10.8227 16.0589 12.518 14.8352 13.8567C13.6115 15.1955 11.9793 16.105 10.1851 16.4478C8.39089 16.7905 6.53234 16.5479 4.89033 15.7566L0.609264 16.9815C0.522455 17.0063 0.430311 17.0062 0.34356 16.9812C0.256809 16.9563 0.179021 16.9076 0.119252 16.8408C0.059484 16.7739 0.0201943 16.6917 0.00595767 16.6037C-0.00827894 16.5157 0.00312316 16.4255 0.0388368 16.3437L1.56125 12.8703C0.652209 11.5141 0.168173 9.92387 0.16952 8.29809Z" fill="white"/>
</svg>
